<?xml version="1.0" encoding="utf-8"?>
<!-- Generator: Adobe Illustrator 25.2.3, SVG Export Plug-In . SVG Version: 6.00 Build 0)  -->
<svg version="1.1" id="Layer_1" xmlns="http://www.w3.org/2000/svg" xmlns:xlink="http://www.w3.org/1999/xlink" x="0px" y="0px"
	 viewBox="0 0 72 72" style="enable-background:new 0 0 72 72;" xml:space="preserve">
<style type="text/css">
	.st0{fill:#F5D952;}
</style>
<g>
	<circle class="st0" cx="36" cy="36" r="32.99"/>
</g>
<g>
	<path d="M24.81,49.29c0,0.15-0.05,0.28-0.14,0.39c-0.09,0.12-0.25,0.21-0.47,0.28c-0.22,0.07-0.51,0.13-0.87,0.17
		c-0.36,0.04-0.83,0.07-1.39,0.07c-0.55,0-1.01-0.02-1.38-0.07c-0.37-0.04-0.66-0.1-0.88-0.17c-0.22-0.07-0.37-0.17-0.47-0.28
		c-0.09-0.12-0.14-0.25-0.14-0.39V22.71c0-0.15,0.05-0.28,0.14-0.39c0.09-0.12,0.25-0.21,0.48-0.28c0.22-0.07,0.52-0.13,0.88-0.17
		c0.36-0.04,0.82-0.06,1.37-0.06c0.57,0,1.03,0.02,1.39,0.06c0.36,0.04,0.65,0.1,0.87,0.17c0.22,0.07,0.37,0.17,0.47,0.28
		c0.09,0.12,0.14,0.25,0.14,0.39V49.29z"/>
	<path d="M38.87,49.29c0,0.15-0.05,0.28-0.14,0.39c-0.09,0.12-0.25,0.21-0.47,0.28c-0.22,0.07-0.51,0.13-0.87,0.17
		c-0.36,0.04-0.83,0.07-1.39,0.07c-0.55,0-1.01-0.02-1.38-0.07c-0.37-0.04-0.66-0.1-0.88-0.17c-0.22-0.07-0.37-0.17-0.47-0.28
		c-0.09-0.12-0.14-0.25-0.14-0.39V22.71c0-0.15,0.05-0.28,0.14-0.39c0.09-0.12,0.25-0.21,0.48-0.28c0.22-0.07,0.52-0.13,0.88-0.17
		c0.36-0.04,0.82-0.06,1.37-0.06c0.57,0,1.03,0.02,1.39,0.06c0.36,0.04,0.65,0.1,0.87,0.17c0.22,0.07,0.37,0.17,0.47,0.28
		c0.09,0.12,0.14,0.25,0.14,0.39V49.29z"/>
	<path d="M52.93,49.29c0,0.15-0.05,0.28-0.14,0.39c-0.09,0.12-0.25,0.21-0.47,0.28c-0.22,0.07-0.51,0.13-0.87,0.17
		c-0.36,0.04-0.83,0.07-1.39,0.07c-0.55,0-1.01-0.02-1.38-0.07c-0.37-0.04-0.66-0.1-0.88-0.17c-0.22-0.07-0.37-0.17-0.47-0.28
		c-0.09-0.12-0.14-0.25-0.14-0.39V22.71c0-0.15,0.05-0.28,0.14-0.39c0.09-0.12,0.25-0.21,0.48-0.28c0.22-0.07,0.52-0.13,0.88-0.17
		c0.36-0.04,0.82-0.06,1.37-0.06c0.57,0,1.03,0.02,1.39,0.06c0.36,0.04,0.65,0.1,0.87,0.17c0.22,0.07,0.37,0.17,0.47,0.28
		c0.09,0.12,0.14,0.25,0.14,0.39V49.29z"/>
</g>
</svg>
