<?xml version="1.0" encoding="utf-8"?>
<!-- Generator: Adobe Illustrator 25.2.3, SVG Export Plug-In . SVG Version: 6.00 Build 0)  -->
<svg version="1.1" id="Layer_1" xmlns="http://www.w3.org/2000/svg" xmlns:xlink="http://www.w3.org/1999/xlink" x="0px" y="0px"
	 viewBox="0 0 72 72" style="enable-background:new 0 0 72 72;" xml:space="preserve">
<style type="text/css">
	.st0{fill:#F5D952;}
</style>
<g>
	<circle class="st0" cx="36" cy="36" r="32.99"/>
</g>
<g>
	<path d="M23.33,49.29c0,0.15-0.05,0.28-0.14,0.39c-0.09,0.12-0.25,0.21-0.47,0.28c-0.22,0.07-0.51,0.13-0.87,0.17
		c-0.36,0.04-0.83,0.07-1.39,0.07c-0.55,0-1.01-0.02-1.38-0.07c-0.37-0.04-0.66-0.1-0.88-0.17c-0.22-0.07-0.37-0.17-0.47-0.28
		c-0.09-0.12-0.14-0.25-0.14-0.39V22.71c0-0.15,0.05-0.28,0.14-0.39c0.09-0.12,0.25-0.21,0.48-0.28c0.22-0.07,0.52-0.13,0.88-0.17
		c0.36-0.04,0.82-0.06,1.37-0.06c0.57,0,1.03,0.02,1.39,0.06c0.36,0.04,0.65,0.1,0.87,0.17c0.22,0.07,0.37,0.17,0.47,0.28
		c0.09,0.12,0.14,0.25,0.14,0.39V49.29z"/>
	<path d="M45.66,49.07c-0.07,0.25-0.17,0.45-0.28,0.6s-0.3,0.27-0.57,0.35c-0.26,0.08-0.62,0.13-1.07,0.15
		c-0.45,0.02-1.04,0.03-1.76,0.03c-0.58,0-1.08,0-1.49-0.01c-0.41-0.01-0.76-0.03-1.05-0.05s-0.53-0.07-0.71-0.13
		c-0.18-0.06-0.33-0.13-0.46-0.22s-0.22-0.19-0.28-0.32s-0.13-0.28-0.19-0.47l-8.37-24.95c-0.17-0.52-0.28-0.94-0.32-1.24
		c-0.04-0.3,0.04-0.53,0.22-0.69c0.18-0.15,0.49-0.25,0.92-0.28c0.44-0.04,1.04-0.05,1.83-0.05c0.67,0,1.19,0.01,1.57,0.04
		c0.38,0.03,0.67,0.08,0.87,0.15s0.34,0.18,0.42,0.33c0.08,0.15,0.16,0.33,0.23,0.54l6.85,21.71h0.02l6.72-21.6
		c0.06-0.25,0.13-0.45,0.22-0.6s0.24-0.27,0.45-0.36s0.51-0.14,0.9-0.17c0.39-0.03,0.93-0.04,1.61-0.04c0.67,0,1.19,0.02,1.56,0.06
		c0.37,0.04,0.62,0.15,0.76,0.32c0.14,0.17,0.18,0.4,0.13,0.71c-0.05,0.3-0.16,0.71-0.34,1.22L45.66,49.07z"/>
</g>
</svg>
